<svg width="24" height="24" viewBox="0 0 24 24" fill="none" xmlns="http://www.w3.org/2000/svg">
<path d="M12.1895 10.6422V13.9002H17.5775C17.3304 15.1214 16.6473 16.2109 15.6559 16.9653C14.6644 17.7198 13.4323 18.0876 12.1895 18.0002C10.5982 18.0002 9.07203 17.3681 7.94681 16.2429C6.82159 15.1177 6.18945 13.5915 6.18945 12.0002C6.18945 10.4089 6.82159 8.8828 7.94681 7.75759C9.07203 6.63237 10.5982 6.00023 12.1895 6.00023C13.5955 5.97097 14.9565 6.49697 15.9775 7.46423L18.5535 4.97923C16.8335 3.35943 14.5519 2.47065 12.1895 2.50023C9.6699 2.50023 7.25353 3.50112 5.47194 5.28271C3.69034 7.06431 2.68945 9.48067 2.68945 12.0002C2.68945 14.5198 3.69034 16.9361 5.47194 18.7177C7.25353 20.4993 9.6699 21.5002 12.1895 21.5002C17.6725 21.5002 21.3095 17.6452 21.3095 12.2172C21.308 11.6887 21.2577 11.1615 21.1595 10.6422H12.1895Z" fill="white"/>
</svg>
